<?xml version="1.0" encoding="utf-8"?>
<!-- Generator: Adobe Illustrator 16.1.0, SVG Export Plug-In . SVG Version: 6.00 Build 0)  -->
<!DOCTYPE svg PUBLIC "-//W3C//DTD SVG 1.1//EN" "http://www.w3.org/Graphics/SVG/1.1/DTD/svg11.dtd">
<svg version="1.1" id="Layer_1" xmlns="http://www.w3.org/2000/svg" xmlns:xlink="http://www.w3.org/1999/xlink" x="0px" y="0px"
	 width="48px" height="48px" viewBox="0 0 48 48" enable-background="new 0 0 48 48" xml:space="preserve">
<g>
	<g>
		<path fill="#B3B3B3" d="M22.417,9.807c-0.383-1.612-2.002-2.608-3.613-2.225c-1.611,0.385-2.606,2.002-2.222,3.615
			c0.383,1.608,2,2.604,3.611,2.221C21.806,13.035,22.802,11.416,22.417,9.807z"/>
	</g>
	<g>
		<path fill="#333333" d="M31.417,9.807c-0.383-1.612-2.002-2.608-3.613-2.225c-1.611,0.385-2.606,2.002-2.222,3.615
			c0.383,1.608,2,2.604,3.611,2.221C30.806,13.035,31.802,11.416,31.417,9.807z"/>
	</g>
	<g>
		<path fill="#333333" d="M31.417,18.807c-0.383-1.612-2.002-2.608-3.613-2.225c-1.611,0.385-2.606,2.002-2.222,3.615
			c0.383,1.608,2,2.604,3.611,2.221C30.806,22.035,31.802,20.416,31.417,18.807z"/>
	</g>
	<g>
		<path fill="#333333" d="M22.417,18.807c-0.383-1.612-2.002-2.608-3.613-2.225c-1.611,0.385-2.606,2.002-2.222,3.615
			c0.383,1.608,2,2.604,3.611,2.221C21.806,22.035,22.802,20.416,22.417,18.807z"/>
	</g>
	<g>
		<path fill="#333333" d="M13.417,18.807c-0.383-1.612-2.002-2.608-3.613-2.225c-1.611,0.385-2.606,2.002-2.222,3.615
			c0.383,1.608,2,2.604,3.611,2.221C12.806,22.035,13.802,20.416,13.417,18.807z"/>
	</g>
	<g>
		<path fill="#333333" d="M13.417,27.807c-0.383-1.612-2.002-2.608-3.613-2.225c-1.611,0.385-2.606,2.002-2.222,3.615
			c0.383,1.608,2,2.604,3.611,2.221C12.806,31.035,13.802,29.416,13.417,27.807z"/>
	</g>
	<g>
		<path fill="#808080" d="M22.417,27.807c-0.383-1.612-2.002-2.608-3.613-2.225c-1.611,0.385-2.606,2.002-2.222,3.615
			c0.383,1.608,2,2.604,3.611,2.221C21.806,31.035,22.802,29.416,22.417,27.807z"/>
	</g>
	<g>
		<path fill="#333333" d="M31.417,27.807c-0.383-1.612-2.002-2.608-3.613-2.225c-1.611,0.385-2.606,2.002-2.222,3.615
			c0.383,1.608,2,2.604,3.611,2.221C30.806,31.035,31.802,29.416,31.417,27.807z"/>
	</g>
	<g>
		<path fill="#333333" d="M22.417,36.807c-0.383-1.612-2.002-2.608-3.613-2.225c-1.611,0.385-2.606,2.002-2.222,3.615
			c0.383,1.608,2,2.604,3.611,2.221C21.806,40.035,22.802,38.416,22.417,36.807z"/>
	</g>
	<g>
		<path fill="#333333" d="M31.417,36.807c-0.383-1.612-2.002-2.608-3.613-2.225c-1.611,0.385-2.606,2.002-2.222,3.615
			c0.383,1.608,2,2.604,3.611,2.221C30.806,40.035,31.802,38.416,31.417,36.807z"/>
	</g>
	<g>
		<path fill="#333333" d="M40.417,27.807c-0.383-1.612-2.002-2.608-3.613-2.225c-1.611,0.385-2.606,2.002-2.222,3.615
			c0.383,1.608,2,2.604,3.611,2.221C39.806,31.035,40.802,29.416,40.417,27.807z"/>
	</g>
	<g>
		<path fill="#E6E6E6" d="M40.417,18.807c-0.383-1.612-2.002-2.608-3.613-2.225c-1.611,0.385-2.606,2.002-2.222,3.615
			c0.383,1.608,2,2.604,3.611,2.221C39.806,22.035,40.802,20.416,40.417,18.807z"/>
	</g>
</g>
</svg>
