<?xml version="1.0" encoding="UTF-8" standalone="no"?>
<!-- Generator: Adobe Illustrator 16.1.0, SVG Export Plug-In . SVG Version: 6.00 Build 0)  -->

<svg
   xmlns:dc="http://purl.org/dc/elements/1.1/"
   xmlns:cc="http://creativecommons.org/ns#"
   xmlns:rdf="http://www.w3.org/1999/02/22-rdf-syntax-ns#"
   xmlns:svg="http://www.w3.org/2000/svg"
   xmlns="http://www.w3.org/2000/svg"
   xmlns:sodipodi="http://sodipodi.sourceforge.net/DTD/sodipodi-0.dtd"
   xmlns:inkscape="http://www.inkscape.org/namespaces/inkscape"
   version="1.1"
   id="Layer_1"
   x="0px"
   y="0px"
   width="48px"
   height="48px"
   viewBox="0 0 48 48"
   enable-background="new 0 0 48 48"
   xml:space="preserve"
   inkscape:version="0.48.3.1 r9886"
   sodipodi:docname="New.svg"><metadata
   id="metadata9340"><rdf:RDF><cc:Work
       rdf:about=""><dc:format>image/svg+xml</dc:format><dc:type
         rdf:resource="http://purl.org/dc/dcmitype/StillImage" /><dc:title></dc:title></cc:Work></rdf:RDF></metadata><defs
   id="defs9338" /><sodipodi:namedview
   pagecolor="#ffffff"
   bordercolor="#666666"
   borderopacity="1"
   objecttolerance="10"
   gridtolerance="10"
   guidetolerance="10"
   inkscape:pageopacity="0"
   inkscape:pageshadow="2"
   inkscape:window-width="1920"
   inkscape:window-height="1151"
   id="namedview9336"
   showgrid="false"
   inkscape:zoom="4.9166667"
   inkscape:cx="24"
   inkscape:cy="24"
   inkscape:window-x="0"
   inkscape:window-y="25"
   inkscape:window-maximized="1"
   inkscape:current-layer="Layer_1" />
<g
   id="g9320">
	<polygon
   fill="#FFFFFF"
   points="12,6.999 28.003,6.999 36.001,14.001 36.001,41.001 12,41.001  "
   id="polygon9322" />
	<rect
   x="11.001"
   y="6"
   fill="#333333"
   width="1.999"
   height="36"
   id="rect9324" />
	<rect
   x="11.001"
   y="6"
   fill="#333333"
   width="17.002"
   height="2"
   id="rect9326" />
	<rect
   x="35"
   y="14.001"
   fill="#333333"
   width="1.999"
   height="27.999"
   id="rect9328" />
	<rect
   x="11.001"
   y="40"
   fill="#333333"
   width="25.998"
   height="2"
   id="rect9330" />
	<polygon
   fill="#333333"
   points="28.003,6 36.999,14.001 36.999,15.999 35,15 27.001,8  "
   id="polygon9332" />
	<path
   fill="#333333"
   d="M25.002,8c1.999,0,3.001,4,1.999,7.999c0,0,7.999-3.122,7.999,1.001c0,1,1.001-2,1.001-2l-7.998-8.001   C28.003,6.999,24.441,8,25.002,8z"
   id="path9334" />
</g>
<g
   id="g10214"
   transform="matrix(0.58705701,0,0,0.57578691,10.41911,13.12969)"><g
     id="g10112">
	<circle
   id="circle10114"
   r="2"
   cy="12.501"
   cx="36.5"
   sodipodi:cx="36.5"
   sodipodi:cy="12.501"
   sodipodi:rx="2"
   sodipodi:ry="2"
   style="fill:#989898"
   d="m 38.5,12.501 c 0,1.10457 -0.895431,2 -2,2 -1.104569,0 -2,-0.89543 -2,-2 0,-1.104569 0.895431,-2 2,-2 1.104569,0 2,0.895431 2,2 z" />
</g><g
     id="g10116">
	<circle
   id="circle10118"
   r="2"
   cy="14.501"
   cx="24.5"
   sodipodi:cx="24.5"
   sodipodi:cy="14.501"
   sodipodi:rx="2"
   sodipodi:ry="2"
   style="fill:#333333"
   d="m 26.5,14.501 c 0,1.10457 -0.895431,2 -2,2 -1.104569,0 -2,-0.89543 -2,-2 0,-1.104569 0.895431,-2 2,-2 1.104569,0 2,0.895431 2,2 z" />
</g><g
     id="g10120">
	<circle
   id="circle10122"
   r="2"
   cy="18.500999"
   cx="30.5"
   sodipodi:cx="30.5"
   sodipodi:cy="18.500999"
   sodipodi:rx="2"
   sodipodi:ry="2"
   style="fill:#333333"
   d="m 32.5,18.500999 c 0,1.10457 -0.895431,2 -2,2 -1.104569,0 -2,-0.89543 -2,-2 0,-1.104569 0.895431,-2 2,-2 1.104569,0 2,0.895431 2,2 z" />
</g><g
     id="g10124">
	<circle
   id="circle10126"
   r="2"
   cy="20.500999"
   cx="25.5"
   sodipodi:cx="25.5"
   sodipodi:cy="20.500999"
   sodipodi:rx="2"
   sodipodi:ry="2"
   style="fill:#333333"
   d="m 27.5,20.500999 c 0,1.10457 -0.895431,2 -2,2 -1.104569,0 -2,-0.89543 -2,-2 0,-1.104569 0.895431,-2 2,-2 1.104569,0 2,0.895431 2,2 z" />
</g><g
     id="g10128">
	<circle
   id="circle10130"
   r="2"
   cy="17.500999"
   cx="19.5"
   sodipodi:cx="19.5"
   sodipodi:cy="17.500999"
   sodipodi:rx="2"
   sodipodi:ry="2"
   style="fill:#989898"
   d="m 21.5,17.500999 c 0,1.10457 -0.895431,2 -2,2 -1.104569,0 -2,-0.89543 -2,-2 0,-1.104569 0.895431,-2 2,-2 1.104569,0 2,0.895431 2,2 z" />
</g><g
     id="g10132">
	<circle
   id="circle10134"
   r="2"
   cy="23.500999"
   cx="19.5"
   sodipodi:cx="19.5"
   sodipodi:cy="23.500999"
   sodipodi:rx="2"
   sodipodi:ry="2"
   style="fill:#333333"
   d="m 21.5,23.500999 c 0,1.10457 -0.895431,2 -2,2 -1.104569,0 -2,-0.89543 -2,-2 0,-1.104569 0.895431,-2 2,-2 1.104569,0 2,0.895431 2,2 z" />
</g><g
     id="g10136">
	<circle
   id="circle10138"
   r="2"
   cy="24.500999"
   cx="29.5"
   sodipodi:cx="29.5"
   sodipodi:cy="24.500999"
   sodipodi:rx="2"
   sodipodi:ry="2"
   style="fill:#333333"
   d="m 31.5,24.500999 c 0,1.10457 -0.895431,2 -2,2 -1.104569,0 -2,-0.89543 -2,-2 0,-1.104569 0.895431,-2 2,-2 1.104569,0 2,0.895431 2,2 z" />
</g><g
     id="g10140">
	<circle
   id="circle10142"
   r="2"
   cy="26.500999"
   cx="24.5"
   sodipodi:cx="24.5"
   sodipodi:cy="26.500999"
   sodipodi:rx="2"
   sodipodi:ry="2"
   style="fill:#333333"
   d="m 26.5,26.500999 c 0,1.10457 -0.895431,2 -2,2 -1.104569,0 -2,-0.89543 -2,-2 0,-1.104569 0.895431,-2 2,-2 1.104569,0 2,0.895431 2,2 z" />
</g><g
     id="g10144">
	<circle
   id="circle10146"
   r="2"
   cy="8.5010004"
   cx="31.5"
   sodipodi:cx="31.5"
   sodipodi:cy="8.5010004"
   sodipodi:rx="2"
   sodipodi:ry="2"
   style="fill:#989898"
   d="m 33.5,8.5010004 c 0,1.1045695 -0.895431,1.9999996 -2,1.9999996 -1.104569,0 -2,-0.8954301 -2,-1.9999996 0,-1.1045695 0.895431,-2 2,-2 1.104569,0 2,0.8954305 2,2 z" />
</g><g
     id="g10148">
	<circle
   id="circle10150"
   r="2"
   cy="10.501"
   cx="14.5"
   sodipodi:cx="14.5"
   sodipodi:cy="10.501"
   sodipodi:rx="2"
   sodipodi:ry="2"
   style="fill:#989898"
   d="m 16.5,10.501 c 0,1.10457 -0.895431,2 -2,2 -1.104569,0 -2,-0.89543 -2,-2 0,-1.1045691 0.895431,-1.9999996 2,-1.9999996 1.104569,0 2,0.8954305 2,1.9999996 z" />
</g><g
     id="g10152">
	<circle
   id="circle10154"
   r="2"
   cy="16.500999"
   cx="12.5"
   sodipodi:cx="12.5"
   sodipodi:cy="16.500999"
   sodipodi:rx="2"
   sodipodi:ry="2"
   style="fill:#989898"
   d="m 14.5,16.500999 c 0,1.10457 -0.895431,2 -2,2 -1.104569,0 -2,-0.89543 -2,-2 0,-1.104569 0.895431,-2 2,-2 1.104569,0 2,0.895431 2,2 z" />
</g><g
     id="g10156">
	<circle
   id="circle10158"
   r="2"
   cy="33.500999"
   cx="23.5"
   sodipodi:cx="23.5"
   sodipodi:cy="33.500999"
   sodipodi:rx="2"
   sodipodi:ry="2"
   style="fill:#333333"
   d="m 25.5,33.500999 c 0,1.10457 -0.895431,2 -2,2 -1.104569,0 -2,-0.89543 -2,-2 0,-1.104569 0.895431,-2 2,-2 1.104569,0 2,0.895431 2,2 z" />
</g><g
     id="g10160">
	<circle
   id="circle10162"
   r="2"
   cy="38.500999"
   cx="25.5"
   sodipodi:cx="25.5"
   sodipodi:cy="38.500999"
   sodipodi:rx="2"
   sodipodi:ry="2"
   style="fill:#989898"
   d="m 27.5,38.500999 c 0,1.10457 -0.895431,2 -2,2 -1.104569,0 -2,-0.89543 -2,-2 0,-1.104569 0.895431,-2 2,-2 1.104569,0 2,0.895431 2,2 z" />
</g><g
     id="g10164">
	<circle
   id="circle10166"
   r="2"
   cy="39.500999"
   cx="20.5"
   sodipodi:cx="20.5"
   sodipodi:cy="39.500999"
   sodipodi:rx="2"
   sodipodi:ry="2"
   style="fill:#989898"
   d="m 22.5,39.500999 c 0,1.10457 -0.895431,2 -2,2 -1.104569,0 -2,-0.89543 -2,-2 0,-1.104569 0.895431,-2 2,-2 1.104569,0 2,0.895431 2,2 z" />
</g><g
     id="g10168">
	<circle
   id="circle10170"
   r="2"
   cy="21.500999"
   cx="10.5"
   sodipodi:cx="10.5"
   sodipodi:cy="21.500999"
   sodipodi:rx="2"
   sodipodi:ry="2"
   style="fill:#989898"
   d="m 12.5,21.500999 c 0,1.10457 -0.895431,2 -2,2 -1.1045695,0 -2,-0.89543 -2,-2 0,-1.104569 0.8954305,-2 2,-2 1.104569,0 2,0.895431 2,2 z" />
</g><g
     id="g10172">
	<circle
   id="circle10174"
   r="2"
   cy="33.500999"
   cx="12.5"
   sodipodi:cx="12.5"
   sodipodi:cy="33.500999"
   sodipodi:rx="2"
   sodipodi:ry="2"
   style="fill:#989898"
   d="m 14.5,33.500999 c 0,1.10457 -0.895431,2 -2,2 -1.104569,0 -2,-0.89543 -2,-2 0,-1.104569 0.895431,-2 2,-2 1.104569,0 2,0.895431 2,2 z" />
</g><g
     id="g10176">
	<circle
   id="circle10178"
   r="2"
   cy="28.500999"
   cx="9.5"
   sodipodi:cx="9.5"
   sodipodi:cy="28.500999"
   sodipodi:rx="2"
   sodipodi:ry="2"
   style="fill:#989898"
   d="m 11.5,28.500999 c 0,1.10457 -0.895431,2 -2,2 -1.1045695,0 -2,-0.89543 -2,-2 0,-1.104569 0.8954305,-2 2,-2 1.104569,0 2,0.895431 2,2 z" />
</g><g
     id="g10180">
	<circle
   id="circle10182"
   r="2"
   cy="38.500999"
   cx="14.5"
   sodipodi:cx="14.5"
   sodipodi:cy="38.500999"
   sodipodi:rx="2"
   sodipodi:ry="2"
   style="fill:#989898"
   d="m 16.5,38.500999 c 0,1.10457 -0.895431,2 -2,2 -1.104569,0 -2,-0.89543 -2,-2 0,-1.104569 0.895431,-2 2,-2 1.104569,0 2,0.895431 2,2 z" />
</g><g
     id="g10184">
	<circle
   id="circle10186"
   r="2"
   cy="28.500999"
   cx="14.5"
   sodipodi:cx="14.5"
   sodipodi:cy="28.500999"
   sodipodi:rx="2"
   sodipodi:ry="2"
   style="fill:#333333"
   d="m 16.5,28.500999 c 0,1.10457 -0.895431,2 -2,2 -1.104569,0 -2,-0.89543 -2,-2 0,-1.104569 0.895431,-2 2,-2 1.104569,0 2,0.895431 2,2 z" />
</g><g
     id="g10188">
	<circle
   id="circle10190"
   r="2"
   cy="34.500999"
   cx="18.5"
   sodipodi:cx="18.5"
   sodipodi:cy="34.500999"
   sodipodi:rx="2"
   sodipodi:ry="2"
   style="fill:#989898"
   d="m 20.5,34.500999 c 0,1.10457 -0.895431,2 -2,2 -1.104569,0 -2,-0.89543 -2,-2 0,-1.104569 0.895431,-2 2,-2 1.104569,0 2,0.895431 2,2 z" />
</g><g
     id="g10192">
	<circle
   id="circle10194"
   r="2"
   cy="34.500999"
   cx="29.5"
   sodipodi:cx="29.5"
   sodipodi:cy="34.500999"
   sodipodi:rx="2"
   sodipodi:ry="2"
   style="fill:#989898"
   d="m 31.5,34.500999 c 0,1.10457 -0.895431,2 -2,2 -1.104569,0 -2,-0.89543 -2,-2 0,-1.104569 0.895431,-2 2,-2 1.104569,0 2,0.895431 2,2 z" />
</g><g
     id="g10196">
	<circle
   id="circle10198"
   r="2"
   cy="30.500999"
   cx="33.5"
   sodipodi:cx="33.5"
   sodipodi:cy="30.500999"
   sodipodi:rx="2"
   sodipodi:ry="2"
   style="fill:#989898"
   d="m 35.5,30.500999 c 0,1.10457 -0.895431,2 -2,2 -1.104569,0 -2,-0.89543 -2,-2 0,-1.104569 0.895431,-2 2,-2 1.104569,0 2,0.895431 2,2 z" />
</g><g
     id="g10200">
	<circle
   id="circle10202"
   r="2"
   cy="18.500999"
   cx="38.5"
   sodipodi:cx="38.5"
   sodipodi:cy="18.500999"
   sodipodi:rx="2"
   sodipodi:ry="2"
   style="fill:#989898"
   d="m 40.5,18.500999 c 0,1.10457 -0.895431,2 -2,2 -1.104569,0 -2,-0.89543 -2,-2 0,-1.104569 0.895431,-2 2,-2 1.104569,0 2,0.895431 2,2 z" />
</g><g
     id="g10204">
	<path
   id="path10206"
   d="M 24.75,30.5 C 19.098,30.5 14.5,25.902 14.5,20.25 14.5,14.598 19.098,10 24.75,10 30.402,10 35,14.598 35,20.25 35,25.902 30.402,30.5 24.75,30.5 z m 0,-19.5 c -5.101,0 -9.25,4.149 -9.25,9.25 0,5.101 4.149,9.25 9.25,9.25 C 29.851,29.5 34,25.351 34,20.25 34,15.149 29.851,11 24.75,11 z"
   inkscape:connector-curvature="0"
   style="fill:#333333" />
</g></g></svg>