<?xml version="1.0" encoding="utf-8"?>
<!-- Generator: Adobe Illustrator 16.1.0, SVG Export Plug-In . SVG Version: 6.00 Build 0)  -->
<!DOCTYPE svg PUBLIC "-//W3C//DTD SVG 1.1//EN" "http://www.w3.org/Graphics/SVG/1.1/DTD/svg11.dtd">
<svg version="1.1" id="Layer_1" xmlns="http://www.w3.org/2000/svg" xmlns:xlink="http://www.w3.org/1999/xlink" x="0px" y="0px"
	 width="48px" height="48px" viewBox="0 0 48 48" enable-background="new 0 0 48 48" xml:space="preserve">
<g>
	<path fill="#333333" d="M6,27.837l2.988-7.674h1.601l2.986,7.674h-1.641l-0.797-2.048H7.96l-0.797,2.048H6z M8.358,24.768h2.381
		l-1.189-3.06L8.358,24.768z"/>
	<path fill="#333333" d="M16.886,27.837v-6.616h-2.748v-1.058h7.094v1.058h-2.748v6.616H16.886z"/>
	<path fill="#333333" d="M22.623,27.837v-7.674h1.597v6.585h3.418v1.089H22.623z"/>
	<path fill="#333333" d="M28.277,27.837l2.988-7.674h1.601l2.986,7.674h-1.641l-0.797-2.048h-3.178l-0.797,2.048H28.277z
		 M30.636,24.768h2.382l-1.19-3.06L30.636,24.768z"/>
	<path fill="#333333" d="M36.825,27.77v-1.317c0.6,0.252,1.047,0.402,1.343,0.451s0.568,0.073,0.817,0.073
		c0.448,0,0.783-0.101,1.004-0.301c0.221-0.201,0.33-0.441,0.33-0.722c0-0.215-0.062-0.408-0.186-0.581
		c-0.123-0.17-0.426-0.39-0.906-0.659l-0.519-0.286c-0.739-0.411-1.24-0.792-1.502-1.142c-0.265-0.349-0.397-0.754-0.397-1.214
		c0-0.577,0.221-1.072,0.662-1.483c0.442-0.412,1.076-0.618,1.904-0.618c0.618,0,1.314,0.089,2.09,0.265v1.229
		c-0.793-0.294-1.424-0.441-1.891-0.441c-0.386,0-0.68,0.084-0.881,0.252c-0.203,0.168-0.303,0.369-0.303,0.604
		c0,0.18,0.061,0.348,0.185,0.504c0.12,0.155,0.421,0.368,0.901,0.638l0.555,0.307c0.848,0.474,1.389,0.886,1.623,1.234
		C41.885,24.915,42,25.311,42,25.749c0,0.629-0.239,1.166-0.72,1.611c-0.479,0.446-1.242,0.669-2.289,0.669
		C38.37,28.029,37.648,27.942,36.825,27.77z"/>
</g>
</svg>
