<?xml version="1.0" encoding="utf-8"?>
<!-- Generator: Adobe Illustrator 16.0.0, SVG Export Plug-In . SVG Version: 6.00 Build 0)  -->
<!DOCTYPE svg PUBLIC "-//W3C//DTD SVG 1.1//EN" "http://www.w3.org/Graphics/SVG/1.1/DTD/svg11.dtd">
<svg version="1.1" id="Layer_1" xmlns="http://www.w3.org/2000/svg" xmlns:xlink="http://www.w3.org/1999/xlink" x="0px" y="0px"
	 width="48px" height="48px" viewBox="0 0 48 48" enable-background="new 0 0 48 48" xml:space="preserve">
<g>
	<path fill="#333333" d="M21.979,15.918l-0.721,2.293c-1.024-0.76-2.138-1.141-3.339-1.141c-2.153,0-3.919,0.832-5.296,2.498
		c-1.378,1.666-2.065,3.764-2.065,6.293c0,3.387,1.597,5.08,4.791,5.08c1.281,0,2.387-0.385,3.315-1.152l0.732-4.119h-2.438
		l0.361-2.043h4.84l-1.357,7.664c-1.658,1.209-3.768,1.812-6.33,1.812C10.158,33.104,8,30.846,8,26.33
		c0-3.371,0.957-6.117,2.87-8.238c1.914-2.123,4.415-3.184,7.507-3.184C20.105,14.908,21.307,15.244,21.979,15.918z"/>
	<path fill="#333333" d="M24.879,26.342c0-3.09,0.824-5.771,2.475-8.041c1.648-2.27,3.791-3.404,6.426-3.404
		c2.025,0,3.568,0.553,4.629,1.658C39.47,17.658,40,19.248,40,21.322c0,3.418-0.835,6.236-2.504,8.455
		c-1.67,2.217-3.981,3.326-6.936,3.326c-1.77,0-3.159-0.627-4.168-1.879C25.384,29.971,24.879,28.344,24.879,26.342z M27.438,26.006
		c0,1.521,0.303,2.725,0.906,3.609c0.605,0.885,1.472,1.326,2.601,1.326c1.993,0,3.577-0.924,4.75-2.773s1.759-4.049,1.759-6.594
		c0-3.02-1.297-4.527-3.891-4.527c-1.793,0-3.263,0.979-4.408,2.936C28.01,21.939,27.438,23.947,27.438,26.006z"/>
</g>
</svg>
