<?xml version="1.0" encoding="utf-8"?>
<!-- Generator: Adobe Illustrator 16.1.0, SVG Export Plug-In . SVG Version: 6.00 Build 0)  -->
<!DOCTYPE svg PUBLIC "-//W3C//DTD SVG 1.1//EN" "http://www.w3.org/Graphics/SVG/1.1/DTD/svg11.dtd">
<svg version="1.1" id="Layer_1" xmlns="http://www.w3.org/2000/svg" xmlns:xlink="http://www.w3.org/1999/xlink" x="0px" y="0px"
	 width="48px" height="48px" viewBox="0 0 48 48" enable-background="new 0 0 48 48" xml:space="preserve">
<linearGradient id="SVGID_1_" gradientUnits="userSpaceOnUse" x1="6" y1="38.4199" x2="42" y2="38.4199">
	<stop  offset="0" style="stop-color:#B3B3B3"/>
	<stop  offset="0.3" style="stop-color:#808080"/>
	<stop  offset="0.7" style="stop-color:#333333"/>
	<stop  offset="1" style="stop-color:#000000"/>
</linearGradient>
<rect x="6" y="36.92" fill="url(#SVGID_1_)" width="36" height="3"/>
<rect x="6" y="33.92" fill="#333333" width="1" height="3"/>
<rect x="8" y="33.92" fill="#333333" width="1" height="3"/>
<rect x="10" y="33.92" fill="#333333" width="1" height="3"/>
<rect x="19" y="33.92" fill="#333333" width="1" height="3"/>
<rect x="17" y="33.92" fill="#333333" width="1" height="3"/>
<rect x="33" y="33.92" fill="#333333" width="1" height="3"/>
<rect x="41" y="33.92" fill="#333333" width="1" height="3"/>
<g>
	<polygon fill="#B2B2B2" points="40.811,27.92 8,27.92 8,27.907 8,20.104 8,8.08 6,8.08 6,27.92 6,29.92 8,29.92 42,29.92 
		42,28.273 42,27.92 	"/>
	<polygon fill="#333333" points="35.102,22.644 34.285,24.139 32.147,22.174 31.641,22.935 29.478,20.61 27.551,21.069 
		20.796,16.016 20.546,16.806 15.656,12.569 15.521,15.789 14.388,14.828 14.284,16.425 13.571,15.398 13.467,17.021 12.428,15.853 
		12.253,17.774 11.227,16.569 10.965,19.532 9.023,18.423 9.023,20.816 8,20.104 8,27.907 9.035,27.907 9.035,22.086 10.059,22.8 
		10.059,20.205 11.854,21.232 12.04,19.122 13.061,20.321 13.242,18.326 14.34,19.562 14.413,18.423 15.125,19.446 15.287,16.946 
		16.468,17.945 16.601,14.756 21.06,18.619 21.344,17.717 27.318,22.189 29.131,21.757 31.776,24.598 32.338,23.755 34.561,25.796 
		35.348,24.354 40.811,27.92 42,27.92 42,27.542 	"/>
</g>
</svg>
