<?xml version="1.0" encoding="utf-8"?>
<!-- Generator: Adobe Illustrator 16.0.0, SVG Export Plug-In . SVG Version: 6.00 Build 0)  -->
<!DOCTYPE svg PUBLIC "-//W3C//DTD SVG 1.1//EN" "http://www.w3.org/Graphics/SVG/1.1/DTD/svg11.dtd">
<svg version="1.1" id="Layer_1" xmlns="http://www.w3.org/2000/svg" xmlns:xlink="http://www.w3.org/1999/xlink" x="0px" y="0px"
	 width="48px" height="48px" viewBox="0 0 48 48" enable-background="new 0 0 48 48" xml:space="preserve">
<g>
	<rect x="9" y="9" fill="#747474" width="4.999" height="5"/>
	<rect x="14" y="9" fill="#777777" width="4.998" height="5"/>
	<rect x="19.002" y="9" fill="#848484" width="4.999" height="5"/>
	<rect x="24.002" y="9" fill="#A1A1A1" width="4.998" height="5"/>
	<rect x="29.002" y="9" fill="#636363" width="4.999" height="5"/>
	<rect x="34.002" y="9" fill="#636363" width="4.998" height="5"/>
	<rect x="9" y="14" fill="#8A8A8A" width="4.999" height="5"/>
	<rect x="14" y="14" fill="#919191" width="4.998" height="5"/>
	<rect x="19.002" y="14" fill="#6D6D6D" width="4.999" height="5"/>
	<rect x="24.002" y="14" fill="#7F7F7F" width="4.998" height="5"/>
	<rect x="29.002" y="14" fill="#797979" width="4.999" height="5"/>
	<rect x="34.002" y="14" fill="#636363" width="4.998" height="5"/>
	<rect x="9" y="19" fill="#878787" width="4.999" height="5"/>
	<rect x="14" y="19" fill="#8A8A8A" width="4.998" height="5"/>
	<rect x="19.002" y="19" fill="#686868" width="4.999" height="5"/>
	<rect x="24.002" y="19" fill="#727272" width="4.998" height="5"/>
	<rect x="29.002" y="19" fill="#989898" width="4.999" height="5"/>
	<rect x="34.002" y="19" fill="#676767" width="4.998" height="5"/>
	<rect x="9" y="24" fill="#7C7C7C" width="4.999" height="5"/>
	<rect x="14" y="24" fill="#898989" width="4.998" height="5"/>
	<rect x="19.002" y="24" fill="#737373" width="4.999" height="5"/>
	<rect x="24.002" y="24" fill="#666666" width="4.998" height="5"/>
	<rect x="29.002" y="24" fill="#8C8C8C" width="4.999" height="5"/>
	<rect x="34.002" y="24" fill="#676767" width="4.998" height="5"/>
	<rect x="9" y="29" fill="#616161" width="4.999" height="5"/>
	<rect x="14" y="29" fill="#808080" width="4.998" height="5"/>
	<rect x="19.002" y="29" fill="#777777" width="4.999" height="5"/>
	<rect x="24.002" y="29" fill="#686868" width="4.998" height="5"/>
	<rect x="29.002" y="29" fill="#686868" width="4.999" height="5"/>
	<rect x="34.002" y="29" fill="#727272" width="4.998" height="5"/>
	<rect x="9" y="34" fill="#636363" width="4.999" height="5"/>
	<rect x="14" y="34" fill="#575757" width="4.998" height="5"/>
	<rect x="19.002" y="34" fill="#6B6B6B" width="4.999" height="5"/>
	<rect x="24.002" y="34" fill="#676767" width="4.998" height="5"/>
	<rect x="29.002" y="34" fill="#585858" width="4.999" height="5"/>
	<rect x="34.002" y="34" fill="#ACACAC" width="4.998" height="5"/>
</g>
</svg>
