<?xml version="1.0" encoding="utf-8"?>
<!-- Generator: Adobe Illustrator 16.1.0, SVG Export Plug-In . SVG Version: 6.00 Build 0)  -->
<!DOCTYPE svg PUBLIC "-//W3C//DTD SVG 1.1//EN" "http://www.w3.org/Graphics/SVG/1.1/DTD/svg11.dtd">
<svg version="1.1" id="Layer_1" xmlns="http://www.w3.org/2000/svg" xmlns:xlink="http://www.w3.org/1999/xlink" x="0px" y="0px"
	 width="48px" height="48px" viewBox="0 0 48 48" enable-background="new 0 0 48 48" xml:space="preserve">
<g>
	<g>
		<circle fill="#333333" cx="20.999" cy="16.736" r="1"/>
	</g>
	<g>
		<circle fill="#333333" cx="27.999" cy="15.736" r="1"/>
	</g>
	<g>
		<circle fill="#333333" cx="33.999" cy="28.736" r="1"/>
	</g>
	<g>
		<circle fill="#333333" cx="30.999" cy="28.736" r="1"/>
	</g>
	<g>
		<circle fill="#333333" cx="26.999" cy="32.736" r="1"/>
	</g>
	<g>
		<circle fill="#333333" cx="27" cy="28.736" r="1"/>
	</g>
	<g>
		<circle fill="#333333" cx="18.999" cy="30.736" r="1"/>
	</g>
	<g>
		<circle fill="#333333" cx="14" cy="30.736" r="1"/>
	</g>
	<g>
		<circle fill="#333333" cx="10.999" cy="29.736" r="1"/>
	</g>
	<g>
		<circle fill="#333333" cx="13.999" cy="34.736" r="1"/>
	</g>
	<g>
		<path fill="#333333" d="M8.275,25.718c-0.088,0.259-0.109,0.542-0.041,0.827c0.191,0.806,1,1.304,1.805,1.111
			c0.494-0.117,0.871-0.469,1.046-0.907c-0.09,0.261-0.112,0.548-0.044,0.835c0.191,0.806,1,1.304,1.805,1.111
			c0.252-0.06,0.469-0.186,0.649-0.347c0.354,0.319,0.853,0.466,1.351,0.347c0.073-0.018,0.141-0.045,0.209-0.072
			c0.209,0.781,1,1.262,1.793,1.072c0.539-0.128,0.936-0.535,1.084-1.029c0.509-0.154,0.877-0.556,1.01-1.04
			c0.121,0.048,0.248,0.079,0.379,0.095c0.167,0.385,0.482,0.674,0.861,0.812c-0.166,0.312-0.229,0.68-0.141,1.051
			c0.191,0.806,1,1.304,1.805,1.111c0.555-0.132,0.956-0.557,1.096-1.069c0.277,0.112,0.591,0.145,0.904,0.069
			c0.807-0.191,1.305-1.001,1.113-1.806c-0.026-0.11-0.066-0.213-0.113-0.311c0.301,0.146,0.648,0.2,1,0.116
			c0.539-0.128,0.936-0.535,1.084-1.029c0.043-0.013,0.084-0.027,0.125-0.043c0.209,0.781,1,1.262,1.791,1.072
			c0.539-0.128,0.936-0.535,1.084-1.029c0.217-0.064,0.406-0.175,0.565-0.317c0.354,0.319,0.853,0.466,1.351,0.347
			c0.555-0.132,0.956-0.557,1.096-1.069c0.277,0.112,0.591,0.145,0.904,0.069c0.512-0.121,0.897-0.492,1.063-0.953
			c0.296,0.628,1,0.985,1.702,0.817c0.549-0.13,0.947-0.548,1.091-1.054c0.329,0.206,0.736,0.287,1.144,0.189
			c0.186-0.044,0.353-0.124,0.501-0.227c0.235,0.21,0.554,0.318,0.884,0.24c0.538-0.128,0.87-0.667,0.742-1.204
			c-0.116-0.487-0.574-0.787-1.059-0.746c-0.246-0.727-1.003-1.163-1.762-0.981c-0.549,0.131-0.947,0.549-1.09,1.055
			c-0.047-0.029-0.1-0.053-0.15-0.077c-0.246-0.724-1.002-1.159-1.76-0.978c-0.554,0.132-0.955,0.557-1.095,1.069
			c-0.054-0.021-0.11-0.036-0.168-0.052c0.112-0.278,0.145-0.592,0.069-0.905c-0.191-0.807-1-1.305-1.807-1.112
			c-0.537,0.129-0.933,0.534-1.082,1.028c-0.043,0.013-0.084,0.027-0.125,0.044c-0.209-0.782-1.002-1.262-1.793-1.072
			c-0.252,0.061-0.469,0.186-0.648,0.347c-0.164-0.148-0.361-0.254-0.574-0.318c-0.227-0.755-1.002-1.214-1.777-1.028
			c-0.051,0.012-0.096,0.033-0.144,0.05c-0.266-0.097-0.562-0.12-0.856-0.05c-0.539,0.129-0.935,0.535-1.084,1.029
			c-0.042,0.013-0.083,0.026-0.123,0.043c-0.209-0.782-1.002-1.262-1.793-1.072c-0.072,0.018-0.14,0.045-0.207,0.072
			c-0.209-0.782-1.002-1.262-1.793-1.072c-0.252,0.061-0.469,0.186-0.648,0.347c-0.164-0.148-0.361-0.254-0.574-0.318
			c-0.227-0.755-1.002-1.214-1.777-1.028c-0.252,0.061-0.469,0.186-0.648,0.347c-0.164-0.148-0.361-0.254-0.574-0.318
			c-0.137-0.456-0.472-0.806-0.891-0.968c0.113-0.278,0.146-0.593,0.071-0.907c-0.191-0.807-1.001-1.305-1.807-1.112
			c-0.563,0.135-0.97,0.573-1.101,1.1c-0.312-0.166-0.681-0.229-1.051-0.141c-0.807,0.192-1.303,1.001-1.111,1.807
			c0.018,0.072,0.045,0.14,0.072,0.207c-0.783,0.21-1.26,1.001-1.072,1.793c0.012,0.05,0.033,0.095,0.049,0.143
			c-0.096,0.266-0.12,0.562-0.049,0.857c0.026,0.11,0.066,0.213,0.113,0.311c-0.301-0.147-0.65-0.201-1.002-0.117
			C8.099,20.79,8.051,20.812,8,20.83v4.804C8.09,25.666,8.18,25.703,8.275,25.718z"/>
	</g>
	<g>
		<circle fill="#333333" cx="18.999" cy="16.736" r="1"/>
	</g>
	<g>
		<circle fill="#333333" cx="16.999" cy="15.736" r="1"/>
	</g>
	<g>
		<circle fill="#333333" cx="14.999" cy="13.736" r="1"/>
	</g>
	<g>
		<circle fill="#333333" cx="16.999" cy="9.736" r="1"/>
	</g>
	<g>
		<circle fill="#333333" cx="14.999" cy="11.736" r="1"/>
	</g>
	<g>
		<circle fill="#333333" cx="11.999" cy="13.736" r="1"/>
	</g>
	<polygon fill="#B2B2B2" points="8,40 8,25.634 8,20.83 8,6 6,6 6,40 6,42 8,42 42,42 42,40 	"/>
</g>
</svg>
