<?xml version="1.0" encoding="utf-8"?>
<!-- Generator: Adobe Illustrator 16.1.0, SVG Export Plug-In . SVG Version: 6.00 Build 0)  -->
<!DOCTYPE svg PUBLIC "-//W3C//DTD SVG 1.1//EN" "http://www.w3.org/Graphics/SVG/1.1/DTD/svg11.dtd">
<svg version="1.1" id="Layer_1" xmlns="http://www.w3.org/2000/svg" xmlns:xlink="http://www.w3.org/1999/xlink" x="0px" y="0px"
	 width="48px" height="48px" viewBox="0 0 48 48" enable-background="new 0 0 48 48" xml:space="preserve">
<g>
	<path fill="#333333" d="M22.673,40.216h4.889c0,0-0.262-4.19,0.611-5.414c0.874-1.222,2.271-3.492,4.629-3.754
		s4.017,0.35,4.977-0.786c0.961-1.135,1.57-2.356,1.31-3.492c0,0-3.929,0.175-4.54,0.874c-0.611,0.698-2.882,3.404-5.763,3.492
		c0,0,2.356-4.453,5.326-7.51c0,0,5.151-2.183,4.628-6.724c0,0-6.322-0.419-5.1,6.479c0,0-4.158,4.874-4.637,4.755
		c0,0,1.672-4.773,3.542-9.986c0,0-2.347,4.774-2.983,5.253c0,0-0.723-1.83-0.836-2.587c0,0,0.109,2.233,0.517,3.223
		c0,0-1.393,4.695-2.666,5.49c0,0-1.512,0.882-1.272-0.972c0,0,1.551-8.378,2.625-10.566c0,0,3.541-2.269,3.859-3.899
		c0,0-0.477-3.303-1.353-4.098c0,0-3.62,2.307-2.706,7.52c0,0-2.029,6.485-3.064,8.516c0,0-0.516,0.994-1.271,0.317
		c0,0-3.236-4.297-3.86-10.107c0,0,0.159-4.257-3.382-6.565c0,0-2.189,4.736,2.984,7.124c0,0,0.115,4.919,3.66,9.51
		c0,0-0.08,1.393-1.114,0.557c-1.034-0.835-6.645-9.191-7.281-10.862c0,0-0.995-3.542-4.935-6.089c0,0-2.07,6.205,4.494,6.284
		c0,0,3.725,5.833,4.419,7.921c0,0-1.153,0.478-2.108-0.517c0,0,1.074-5.093-5.491-4.974c0,0-1.62,3.875,5.173,5.371
		c0,0,4.178,1.87,4.416,4.815c0,0-3.184,0.59-4.178-0.501c-0.996-1.092-7.004-0.342-7.242,0c0,0,2.626,4.786,7.281,1.216
		c0,0,2.587-0.557,4.497,0.717C20.727,30.245,23.273,31.877,22.673,40.216z"/>
	<path fill="#333333" d="M32.704,33.329c0,0,2.328,3.282,5.072,0.836C37.776,34.165,35.569,32.136,32.704,33.329z"/>
	<path fill="#333333" d="M11.993,25.391c0,0-2.029-2.387-4.416-1.491C5.188,24.795,10.919,26.347,11.993,25.391z"/>
	<path fill="#333333" d="M22.199,15.006c0,0-1.015,3.104,2.687,3.462C24.886,18.468,25.417,16.752,22.199,15.006z"/>
	<path fill="#333333" d="M23.095,7.784c0,0-1.97,3.761,3.163,4.954C26.258,12.738,26.616,9.396,23.095,7.784z"/>
	<path fill="#333333" d="M33.301,15.364c0,0,1.79-3.939,6.208-5.104C39.509,10.261,40.284,16.498,33.301,15.364z"/>
	<path fill="#333333" d="M36.702,24.695c0,0,1.683-2.945,4.298-2.348C41,22.348,40.505,25.154,36.702,24.695z"/>
</g>
</svg>
