<?xml version="1.0" encoding="utf-8"?>
<!-- Generator: Adobe Illustrator 16.1.0, SVG Export Plug-In . SVG Version: 6.00 Build 0)  -->
<!DOCTYPE svg PUBLIC "-//W3C//DTD SVG 1.1//EN" "http://www.w3.org/Graphics/SVG/1.1/DTD/svg11.dtd">
<svg version="1.1" id="Layer_1" xmlns="http://www.w3.org/2000/svg" xmlns:xlink="http://www.w3.org/1999/xlink" x="0px" y="0px"
	 width="48px" height="48px" viewBox="0 0 48 48" enable-background="new 0 0 48 48" xml:space="preserve">
<g>
	<path fill="#333333" d="M31.984,18.128c-1.275-1.078-5.856-1.182-5.856-1.182S25,16.946,25,15.173c0-0.575,0-1.187,0-1.773
		c0,0-0.5,0.002-0.959,0.005l-1-1.847c0,0,1.168-1.182,5.305-0.592c1.508,0.215,2.765-0.54,2.4-2.135
		c-0.353-1.543-1.649-1.48-2.917-1.192c-1.634,0.374-3.46,0.929-4.813-0.218c-0.698-0.591-2.257,0-2.257,0
		c-1.558,0.85-3.178,0.592-4.812,0.218c-1.268-0.288-2.561-0.351-2.914,1.192c-0.365,1.595,0.899,2.35,2.407,2.135
		c4.136-0.59,5.318,0.592,5.318,0.592L19.91,13.42c-0.557-0.001-0.932-0.005-0.933-0.015c0.033,0.584,0.006,1.217,0.006,1.794
		c0,1.773-1.181,1.8-1.181,1.8H8v4.386c17-0.895,18.492-0.305,18.492-0.305c3.546,0.592,3.042,3.938,3.042,3.938
		c2.362,1.182,4.77,0,4.77,0C34.305,20.883,33.432,19.353,31.984,18.128z"/>
	<path fill="#666666" d="M39.206,26.103v1.216h-2.055v4.549h-1.445v-4.549h-2.064v-1.216H39.206z"/>
	<path fill="#666666" d="M27.478,29.312c0.554-0.565,1.257-0.848,2.111-0.848c1.144,0,1.979,0.38,2.508,1.138
		c0.292,0.425,0.449,0.852,0.471,1.28h-1.436c-0.091-0.328-0.208-0.577-0.352-0.745c-0.255-0.298-0.634-0.447-1.137-0.447
		c-0.511,0-0.914,0.21-1.21,0.631c-0.295,0.422-0.442,1.018-0.442,1.787c0,0.771,0.155,1.348,0.467,1.732
		c0.312,0.384,0.708,0.575,1.188,0.575c0.493,0,0.868-0.165,1.127-0.494c0.143-0.177,0.261-0.442,0.354-0.797h1.427
		c-0.123,0.748-0.438,1.357-0.942,1.827c-0.506,0.469-1.154,0.703-1.943,0.703c-0.978,0-1.746-0.316-2.306-0.951
		c-0.56-0.636-0.839-1.509-0.839-2.619C26.523,30.887,26.841,29.963,27.478,29.312z"/>
	<path fill="#666666" d="M38.391,35.939c-0.108-0.469-0.374-0.796-0.797-0.983c-0.236-0.102-0.499-0.153-0.787-0.153
		c-0.554,0-1.008,0.208-1.364,0.626c-0.354,0.416-0.532,1.043-0.532,1.881c0,0.844,0.192,1.44,0.577,1.79
		c0.385,0.352,0.823,0.526,1.314,0.526c0.481,0,0.876-0.139,1.184-0.414c0.308-0.276,0.496-0.64,0.568-1.087h-1.589v-1.146h2.861
		v3.687h-0.951l-0.145-0.856c-0.276,0.324-0.524,0.553-0.745,0.686c-0.379,0.231-0.845,0.348-1.397,0.348
		c-0.911,0-1.656-0.315-2.238-0.944c-0.605-0.634-0.908-1.5-0.908-2.6c0-1.111,0.307-2.003,0.918-2.674
		c0.612-0.67,1.421-1.006,2.428-1.006c0.873,0,1.575,0.223,2.104,0.665c0.53,0.442,0.833,0.995,0.911,1.656H38.391z"/>
</g>
</svg>
