<?xml version="1.0" encoding="utf-8"?>
<!-- Generator: Adobe Illustrator 16.1.0, SVG Export Plug-In . SVG Version: 6.00 Build 0)  -->
<!DOCTYPE svg PUBLIC "-//W3C//DTD SVG 1.1//EN" "http://www.w3.org/Graphics/SVG/1.1/DTD/svg11.dtd">
<svg version="1.1" id="Layer_1" xmlns="http://www.w3.org/2000/svg" xmlns:xlink="http://www.w3.org/1999/xlink" x="0px" y="0px"
	 width="48px" height="48px" viewBox="0 0 48 48" enable-background="new 0 0 48 48" xml:space="preserve">
<g>
	<path fill="#333333" d="M36.691,31.366h2.223c2.444-3.667,0-6.111,0-6.111h-3.667l1-3.444c-2.445-1.222-5.667,0-5.667,0l1,3.444
		H27.06c-0.505-1.049-1.568-1.779-2.81-1.779s-2.306,0.73-2.81,1.779h-4.526c-1.222-1.223,0.102-2.037,0.102-2.037H8.358v2.037
		c2.444,0,2.444,1.223,2.444,1.223v7.111H8v2.444h2.641c0,1.438,1.167,2.606,2.606,2.606c1.44,0,2.606-1.168,2.606-2.606h2
		c0,1.438,1.166,2.606,2.606,2.606c1.44,0,2.606-1.168,2.606-2.606h2c0,1.438,1.166,2.606,2.606,2.606
		c1.44,0,2.606-1.168,2.606-2.606h2c0,1.438,1.167,2.606,2.606,2.606s2.605-1.169,2.605-2.606h1.786v-2.444h-1.36L36.691,31.366z"/>
	<path fill="#666666" d="M35.883,16.36c0-1.03-0.835-1.867-1.867-1.867c-0.095,0-0.187,0.015-0.278,0.028
		c-0.327-0.656-0.921-1.148-1.645-1.336c0.031-0.183,0.056-0.367,0.056-0.559c0-1.804-1.461-3.267-3.267-3.267
		c-0.851,0-1.618,0.333-2.199,0.865c-0.459-0.247-0.977-0.399-1.534-0.399c-1.805,0-3.267,1.464-3.267,3.268
		c0,1.753,1.384,3.172,3.118,3.252c0.522,1.108,1.641,1.882,2.949,1.882c0.699,0,1.343-0.224,1.874-0.597
		c0.444,0.367,1.005,0.597,1.626,0.597c0.3,0,0.584-0.062,0.852-0.156c-0.094,0.188-0.152,0.397-0.152,0.622
		c0,0.773,0.627,1.4,1.4,1.4s1.4-0.627,1.4-1.4c0-0.23-0.062-0.445-0.161-0.638C35.434,17.762,35.883,17.115,35.883,16.36z"/>
</g>
</svg>
