<?xml version="1.0" encoding="utf-8"?>
<!-- Generator: Adobe Illustrator 15.0.0, SVG Export Plug-In . SVG Version: 6.00 Build 0)  -->
<!DOCTYPE svg PUBLIC "-//W3C//DTD SVG 1.1//EN" "http://www.w3.org/Graphics/SVG/1.1/DTD/svg11.dtd">
<svg version="1.1"
	 id="svg2" xmlns:sodipodi="http://sodipodi.sourceforge.net/DTD/sodipodi-0.dtd" sodipodi:docname="Gc-GenCloud.svg" xmlns:cc="http://creativecommons.org/ns#" xmlns:dc="http://purl.org/dc/elements/1.1/" xmlns:inkscape="http://www.inkscape.org/namespaces/inkscape" inkscape:export-filename="C:\Users\nejc_000\Google Drive\Genialis\Business\Branding\Logo\Genialis\Gc-GenCloud.png" xmlns:svg="http://www.w3.org/2000/svg" inkscape:export-xdpi="116.72" inkscape:version="0.48.2 r9819" xmlns:rdf="http://www.w3.org/1999/02/22-rdf-syntax-ns#" inkscape:export-ydpi="116.72"
	 xmlns="http://www.w3.org/2000/svg" xmlns:xlink="http://www.w3.org/1999/xlink" x="0px" y="0px" width="396.646px"
	 height="439.717px" viewBox="0 0 396.646 439.717" enable-background="new 0 0 396.646 439.717" xml:space="preserve">
<defs>
	
	
		<inkscape:perspective  id="perspective2985" sodipodi:type="inkscape:persp3d" inkscape:vp_y="0 : 1000 : 0" inkscape:vp_x="0 : 526.18109 : 1" inkscape:persp3d-origin="372.04724 : 350.78739 : 1" inkscape:vp_z="744.09448 : 526.18109 : 1">
		</inkscape:perspective>
</defs>
<sodipodi:namedview  showgrid="false" inkscape:cy="435.582" inkscape:document-units="px" inkscape:pageshadow="2" inkscape:window-y="-9" inkscape:window-height="1123" id="base" inkscape:current-layer="layer1" bordercolor="#666666" inkscape:window-width="1920" pagecolor="#ffffff" inkscape:cx="216.95411" inkscape:pageopacity="0.0" inkscape:window-maximized="1" inkscape:window-x="1911" inkscape:zoom="0.98994949" borderopacity="1.0">
	</sodipodi:namedview>
<path id="path3003" inkscape:flatsided="false" sodipodi:cy="206.6479" sodipodi:cx="154.28571" sodipodi:sides="6" sodipodi:arg1="0.7140907" sodipodi:type="star" sodipodi:r2="453.70132" inkscape:rounded="0.18" sodipodi:r1="408.33118" inkscape:randomized="0" sodipodi:arg2="1.2376895" fill="#AAAAAA" d="
	M278.961,78.524c14.166,8.082,67.247,36.051,75.475,50.134c8.227,14.083,6.521,74.059,6.604,90.367
	c0.084,16.312,2.402,76.267-5.68,90.432c-8.084,14.166-60.877,42.676-74.959,50.902c-14.083,8.228-64.845,40.213-81.154,40.296
	c-16.31,0.084-67.397-31.38-81.564-39.464c-14.166-8.081-67.248-36.051-75.474-50.133c-8.227-14.083-6.521-74.06-6.605-90.37
	c-0.083-16.309-2.402-76.264,5.68-90.429c8.083-14.166,60.876-42.677,74.958-50.904s64.845-40.212,81.155-40.295
	C213.708,38.977,264.795,70.441,278.961,78.524z"/>
<g enable-background="new    ">
	<path fill="#FFFFFF" d="M197.29,142.735l-5.313,15.937c-1.118,3.915-4.753,4.754-8.387,3.076
		c-10.346-5.033-26.842-9.507-40.261-9.507c-13.98,0-24.884,2.517-31.874,10.345c-8.108,8.947-11.463,24.884-11.463,50.326v6.151
		c0,27.4,1.957,40.263,8.947,49.489c6.151,8.387,16.497,11.463,32.153,11.463c9.507,0,17.615-0.56,21.529-1.117
		c3.355-0.56,4.475-1.678,4.475-5.313v-40.54h-20.69c-5.872,0-7.55-1.398-7.55-6.432v-15.657c0-5.312,1.678-6.99,7.55-6.99h49.207
		c5.033,0,6.711,2.236,6.711,6.99v81.082c0,6.711-1.118,8.948-7.271,10.625c-15.656,4.194-35.507,6.431-52.282,6.431
		c-30.477,0-47.531-5.032-59.833-17.335c-13.98-13.7-19.012-36.627-19.012-70.459v-10.903c0-33.551,6.989-56.478,21.809-70.178
		c13.42-12.301,33.271-17.054,59.552-17.054c17.894,0,38.583,5.312,49.208,10.904C197.848,135.747,198.687,138.262,197.29,142.735z"
		/>
	<path fill="#FFFFFF" d="M329.814,292.037c1.396,5.033,0.278,6.711-5.873,9.786c-9.507,4.753-25.442,7.27-40.539,7.27
		c-16.218,0-31.595-4.754-40.262-12.583c-13.42-12.021-15.658-31.313-15.658-55.079v-8.387c0-24.886,4.473-42.5,16.775-53.125
		c9.786-8.387,23.765-12.86,41.938-12.86c15.938,0,32.434,5.032,43.058,11.462c4.473,2.796,4.752,5.873,2.794,9.786l-6.99,13.98
		c-1.396,2.794-4.472,4.193-8.106,1.957c-10.065-6.431-19.012-9.227-29.357-9.227c-7.828,0-14.259,1.957-18.73,5.871
		c-7.83,6.99-7.55,17.615-7.55,34.391v4.474c0,19.012,1.117,27.958,6.43,34.389c4.193,4.754,10.064,7.829,21.528,7.829
		c9.228,0,20.689-2.517,28.239-5.871c4.193-1.958,7.549-1.118,8.667,3.075L329.814,292.037z"/>
</g>
</svg>
