<?xml version="1.0" encoding="UTF-8" standalone="no"?>
<!-- Created with Inkscape (http://www.inkscape.org/) -->
<svg xmlns="http://www.w3.org/2000/svg" version="1.1" x="0px" y="0px"
	 width="48px" height="48px" viewBox="0 0 48 48">
	<path stroke-linejoin="miter" d="m32.375,12.998c3.485,10.859,3.485,10.859,3.485,10.859" stroke="#8a8d8f" stroke-linecap="butt" stroke-width="1px" fill="#6c6e70"/>
	<path stroke-linejoin="miter" d="M16.617,20.221c-5.657-9.496-5.657-9.546-5.657-9.546" stroke="#8a8d8f" stroke-linecap="butt" stroke-width="1px" fill="#888a8c"/>
	<path stroke-linejoin="miter" d="M12.273,9.0586c16.769,1.5154,16.87,1.5154,16.87,1.5154" stroke="#8a8d8f" stroke-linecap="butt" stroke-width="1px" fill="#888a8c"/>
	<path stroke-linejoin="miter" d="m36.871,28.807c-0.40406,7.4751-0.40406,7.4246-0.40406,7.4246" stroke="#8a8d8f" stroke-linecap="butt" stroke-width="1px" fill="#888a8c"/>
	<path stroke-linejoin="miter" d="m15.809,37.999c18.738,0.15152,18.738,0.10102,18.738,0.10102" stroke="#8a8d8f" stroke-linecap="butt" stroke-width="1px" fill="#888a8c"/>
	<path stroke-linejoin="miter" d="M34.396,26.13c-14.951-3.485-14.951-3.485-14.951-3.485" stroke="#8a8d8f" stroke-linecap="butt" stroke-width="1px" fill="#888a8c"/>
	<path stroke-linejoin="miter" d="m17.173,23.655c-3.182,12.021-3.2325,12.071-3.2325,12.071" stroke="#8a8d8f" stroke-linecap="butt" stroke-width="1px" fill="#888a8c"/>
	<path stroke-linejoin="miter" d="M9.8995,11.129c3.0305,24.244,3.0305,24.244,3.0305,24.244" stroke="#8a8d8f" stroke-linecap="butt" stroke-width="1px" fill="#888a8c"/>
	<path stroke-linejoin="miter" d="M19.193,20.524c10.708-8.283,10.708-8.283,10.708-8.283" stroke="#8a8d8f" stroke-linecap="butt" stroke-width="1px" fill="#888a8c"/>
	<path d="m13.132,10.624a2.9294,2.9294,0,1,1,-5.8589,0,2.9294,2.9294,0,1,1,5.8589,0z" transform="translate(-0.05050763,-1.6667517)" stroke="#6c6e70" fill="#6c6e70"/>
	<path d="m34.497,12.417a3.0557,3.0557,0,1,1,-6.1114,0,3.0557,3.0557,0,1,1,6.1114,0z" transform="translate(-0.05050763,-1.6667517)" stroke="#6c6e70" fill="#6c6e70"/>
	<path d="m18.89,25.221a2.6769,2.6769,0,1,1,-5.3538,0,2.6769,2.6769,0,1,1,5.3538,0z" transform="translate(1.5657365,-3.4345187)" stroke="#6c6e70" fill="#6c6e70"/>
	<path d="m40.103,27.847a3.1315,3.1315,0,1,1,-6.2629,0,3.1315,3.1315,0,1,1,6.2629,0z" transform="translate(-0.05050763,-1.6667517)" stroke="#6c6e70" fill="#6c6e70"/>
	<path d="m38.992,39.717a2.5759,2.5759,0,1,1,-5.1518,0,2.5759,2.5759,0,1,1,5.1518,0z" transform="translate(-0.05050763,-1.6667517)" stroke="#6c6e70" fill="#6c6e70"/>
	<path d="m17.577,39.338a3.0557,3.0557,0,1,1,-6.1114,0,3.0557,3.0557,0,1,1,6.1114,0z" transform="translate(-0.80812204,-1.6667517)" stroke="#6c6e70" fill="#6c6e70"/>
</svg>
