<?xml version="1.0" encoding="utf-8"?>
<!-- Generator: Adobe Illustrator 16.1.0, SVG Export Plug-In . SVG Version: 6.00 Build 0)  -->
<!DOCTYPE svg PUBLIC "-//W3C//DTD SVG 1.1//EN" "http://www.w3.org/Graphics/SVG/1.1/DTD/svg11.dtd">
<svg version="1.1" id="Layer_1" xmlns="http://www.w3.org/2000/svg" xmlns:xlink="http://www.w3.org/1999/xlink" x="0px" y="0px"
	 width="48px" height="48px" viewBox="0 0 48 48" enable-background="new 0 0 48 48" xml:space="preserve">
<g>
	<path fill-rule="evenodd" clip-rule="evenodd" fill="#333333" d="M22.324,13.354c0.184-0.998,0.799-1.406,1.809-1.315
		c1.017,0.092,1.49,0.751,1.566,1.67c0.132,1.587,0.181,3.182,0.266,4.796c1.34,0,2.689,0,4.165,0c0-1.508,0.126-2.934-0.022-4.329
		c-0.541-5.053-3.541-6.907-8.138-5.92c-1.665,0.357-2.86,1.416-3.384,3.013c-0.396,1.207-0.691,2.507-0.707,3.769
		c-0.072,5.871-0.09,11.746,0.013,17.617c0.026,1.508,0.325,3.103,0.904,4.488c0.614,1.47,2.022,2.441,3.554,2.689
		c1.34,0.216,3.1,0.296,4.387-0.197c0.775-0.297,1.564-0.931,2.066-1.592c0.678-0.893,0.753-1.979,0.854-3.077
		c0.223-2.439,0.09-4.975,0.115-7.424c0.004-0.274,0.027-3.778,0-3.778c-2.064,0-3.767,0-5.812,0c0,1.2,0,2.345,0,3.55
		c0.599,0.001,1.16,0.001,1.731,0.001c0,2.316,0.001,4.68-0.014,6.929c-0.008,1.21-0.59,1.561-1.728,1.627
		c-0.689,0.041-1.265-0.299-1.471-0.985c-0.173-0.574-0.274-1.192-0.276-1.792c-0.02-5.937-0.015-11.875-0.006-17.811
		C22.199,14.638,22.209,13.984,22.324,13.354z"/>
</g>
</svg>
