<?xml version="1.0" encoding="utf-8"?>
<!-- Generator: Adobe Illustrator 16.1.0, SVG Export Plug-In . SVG Version: 6.00 Build 0)  -->
<!DOCTYPE svg PUBLIC "-//W3C//DTD SVG 1.1//EN" "http://www.w3.org/Graphics/SVG/1.1/DTD/svg11.dtd">
<svg version="1.1" id="Layer_1" xmlns="http://www.w3.org/2000/svg" xmlns:xlink="http://www.w3.org/1999/xlink" x="0px" y="0px"
	 width="48px" height="48px" viewBox="0 0 48 48" enable-background="new 0 0 48 48" xml:space="preserve">
<g>
	<g>
		<path fill="#333333" d="M23.749,8h0.515l8.303,18H15.433L23.749,8z M17.993,24.449l10.21,0.016l-4.989-11.512L17.993,24.449z"/>
	</g>
	<g>
		<rect x="9" y="30" fill="#7C7C7C" width="4.999" height="5"/>
		<rect x="14" y="30" fill="#BBBBBB" width="4.999" height="5"/>
		<rect x="19.001" y="30" fill="#A4A4A4" width="5" height="5"/>
		<rect x="24.001" y="30" fill="#8F8F8F" width="4.999" height="5"/>
		<rect x="29.001" y="30" fill="#E6E6E6" width="5" height="5"/>
		<rect x="34.001" y="30" fill="#757575" width="4.999" height="5"/>
		<rect x="9" y="35" fill="#858585" width="4.999" height="5"/>
		<rect x="14" y="35" fill="#DADADA" width="4.999" height="5"/>
		<rect x="19.001" y="35" fill="#777777" width="5" height="5"/>
		<rect x="24.001" y="35" fill="#686868" width="4.999" height="5"/>
		<rect x="29.001" y="35" fill="#939393" width="5" height="5"/>
		<rect x="34.001" y="35" fill="#A4A4A4" width="4.999" height="5"/>
	</g>
</g>
</svg>
