<?xml version="1.0" encoding="utf-8"?>
<!-- Generator: Adobe Illustrator 16.1.0, SVG Export Plug-In . SVG Version: 6.00 Build 0)  -->
<!DOCTYPE svg PUBLIC "-//W3C//DTD SVG 1.1//EN" "http://www.w3.org/Graphics/SVG/1.1/DTD/svg11.dtd">
<svg version="1.1" id="Layer_1" xmlns="http://www.w3.org/2000/svg" xmlns:xlink="http://www.w3.org/1999/xlink" x="0px" y="0px"
	 width="48px" height="48px" viewBox="0 0 48 48" enable-background="new 0 0 48 48" xml:space="preserve">
<g>
	<path fill="#333333" d="M30.163,21.118l7.363,4.252l0.5-0.865l-7.363-4.252v-7.248h-1v7.247l-7.036,4.062l-7.536-4.351
		l-8.114,4.685v9.37l8.114,4.684l7.536-4.351l7.286,4.206l0.5-0.865l-7.209-4.162v-8.394L30.163,21.118z M7.977,33.44v-8.214
		l7.114-4.108l6.958,4.019v8.394l-6.958,4.018L7.977,33.44z"/>
	<g>
		<rect x="9.489" y="25.565" fill="#333333" width="1" height="7.536"/>
	</g>
	<g>
		
			<rect x="13.98" y="24.194" transform="matrix(0.8649 0.502 -0.502 0.8649 14.7853 -5.5334)" fill="#333333" width="7.38" height="1"/>
	</g>
	<g>
		
			<rect x="17.233" y="30.229" transform="matrix(0.5018 0.865 -0.865 0.5018 38.1735 1.5589)" fill="#333333" width="1" height="7.38"/>
	</g>
	<g>
		<g>
			<path fill="#333333" d="M37.079,30.078c-0.269,0.275-0.654,0.413-1.161,0.413s-0.894-0.138-1.161-0.413
				c-0.359-0.339-0.539-0.824-0.539-1.461c0-0.65,0.18-1.138,0.539-1.462c0.268-0.276,0.654-0.414,1.161-0.414
				s0.893,0.138,1.161,0.414c0.357,0.324,0.535,0.812,0.535,1.462C37.614,29.254,37.437,29.739,37.079,30.078z M36.616,29.539
				c0.172-0.216,0.258-0.523,0.258-0.922c0-0.397-0.086-0.705-0.258-0.923c-0.172-0.217-0.405-0.326-0.698-0.326
				c-0.294,0-0.526,0.108-0.702,0.325c-0.175,0.216-0.262,0.523-0.262,0.924c0,0.398,0.087,0.706,0.262,0.922
				c0.176,0.216,0.408,0.325,0.702,0.325C36.211,29.864,36.444,29.755,36.616,29.539z"/>
		</g>
		<g>
			<path fill="#333333" d="M38.175,30.393V26.85h0.736V28.2h1.377V26.85h0.735v3.543h-0.735v-1.581h-1.377v1.581H38.175z"/>
		</g>
	</g>
	<g>
		<g>
			<path fill="#333333" d="M29.62,11.336c-0.268,0.275-0.654,0.413-1.16,0.413c-0.507,0-0.895-0.138-1.161-0.413
				c-0.359-0.339-0.538-0.824-0.538-1.461c0-0.65,0.179-1.137,0.538-1.462C27.565,8.137,27.953,8,28.46,8
				c0.506,0,0.893,0.137,1.16,0.413c0.357,0.325,0.537,0.812,0.537,1.462C30.157,10.512,29.978,10.997,29.62,11.336z M29.158,10.797
				c0.173-0.216,0.259-0.523,0.259-0.922c0-0.397-0.086-0.705-0.259-0.923c-0.173-0.217-0.405-0.326-0.698-0.326
				s-0.527,0.108-0.702,0.325c-0.175,0.216-0.263,0.523-0.263,0.924c0,0.398,0.088,0.706,0.263,0.922
				c0.175,0.217,0.409,0.325,0.702,0.325S28.985,11.014,29.158,10.797z"/>
		</g>
		<g>
			<path fill="#333333" d="M30.717,11.651V8.107h0.735v1.351h1.378V8.107h0.735v3.544H32.83V10.07h-1.378v1.581H30.717z"/>
		</g>
	</g>
	<g>
		<g>
			<path fill="#333333" d="M34.933,39.587C34.664,39.862,34.278,40,33.771,40s-0.894-0.138-1.161-0.413
				c-0.359-0.338-0.539-0.824-0.539-1.462c0-0.649,0.18-1.136,0.539-1.462c0.268-0.274,0.654-0.412,1.161-0.412
				s0.893,0.138,1.161,0.412c0.357,0.326,0.535,0.812,0.535,1.462C35.468,38.763,35.29,39.249,34.933,39.587z M34.47,39.048
				c0.172-0.216,0.258-0.522,0.258-0.923c0-0.397-0.086-0.704-0.258-0.922c-0.172-0.216-0.405-0.326-0.698-0.326
				c-0.294,0-0.526,0.107-0.702,0.326c-0.175,0.216-0.262,0.522-0.262,0.922c0,0.4,0.087,0.707,0.262,0.923
				c0.176,0.216,0.408,0.326,0.702,0.326C34.064,39.374,34.298,39.264,34.47,39.048z"/>
		</g>
		<g>
			<path fill="#333333" d="M36.028,39.901v-3.542h0.736v1.349h1.377v-1.349h0.735v3.542h-0.735v-1.58h-1.377v1.58H36.028z"/>
		</g>
	</g>
</g>
</svg>
