<?xml version="1.0" encoding="utf-8"?>
<!-- Generator: Adobe Illustrator 16.1.0, SVG Export Plug-In . SVG Version: 6.00 Build 0)  -->
<!DOCTYPE svg PUBLIC "-//W3C//DTD SVG 1.1//EN" "http://www.w3.org/Graphics/SVG/1.1/DTD/svg11.dtd">
<svg version="1.1" id="Layer_1" xmlns="http://www.w3.org/2000/svg" xmlns:xlink="http://www.w3.org/1999/xlink" x="0px" y="0px"
	 width="48px" height="48px" viewBox="0 0 48 48" enable-background="new 0 0 48 48" xml:space="preserve">
<g>
	<path fill="#333333" d="M36.021,34.75c-0.709,0.516-1.511,0.933-2.428,0.794c-1.249-0.189-2.321-0.898-3.387-1.527
		c-0.735-0.434-1.483-0.844-2.21-1.291c0.136,0.083,1.152-0.493,1.321-0.572c0.444-0.21,0.882-0.438,1.302-0.694
		c0.913-0.562,1.738-1.257,2.462-2.046c1.69-1.842,2.812-4.138,3.145-6.619c0.487-3.618,0.042-7.272-2.563-10.019
		c-0.621-0.656-1.355-1.31-2.119-1.794c-3.332-2.11-8.126-2.47-11.859-1.388c-3.74,1.082-7.016,3.824-8.282,7.562
		c-1.05,3.096-1.197,6.175,0.241,9.176c0.373,0.776,0.813,1.551,1.309,2.255c0.486,0.691,1.029,1.35,1.59,1.981
		c0.116,0.132,0.776,0.699,1.208,1.002c-0.899,0.559-1.563,1.449-1.989,2.407c-0.215,0.484-0.4,0.983-0.504,1.504
		c-0.045,0.227-0.34,1.244-0.071,1.544c0.186,0.208,1.19,0.47,1.409-0.217c0.085-0.271,0.117-0.771,0.212-1.071
		c0.384-1.193,1.279-2.08,2.533-2.288c1.563-0.261,3.129,0.921,4.39,1.693c1.385,0.847,2.746,1.737,4.193,2.479
		c0.804,0.412,1.633,0.778,2.491,1.062c2.178,0.723,4.315,0.136,6.212-1.035c0.543-0.337,1.059-0.714,1.582-1.078
		c0.363-0.253,1.283-0.895,1.199-1.374c-0.052-0.287-0.459-0.828-0.862-0.763C36.391,34.459,36.163,34.646,36.021,34.75z
		 M19.007,28.71c-0.681-0.799-1.233-1.711-1.638-2.675c-1.117-2.672-1.304-5.688-1.021-8.543c0.209-2.108,1.011-4.142,2.732-5.46
		c0.456-0.349,0.965-0.613,1.506-0.804c2.394-0.843,5.371,0,7.087,1.84c0.805,0.862,1.427,1.863,1.84,2.966
		c1.2,3.201,1.758,6.691,0.913,10.051c-0.241,0.963-0.637,1.914-1.142,2.769c-1.002,1.697-2.848,2.702-4.811,2.694
		c-1.056-0.003-2.097-0.309-3.018-0.815C20.521,30.215,19.698,29.521,19.007,28.71z"/>
</g>
</svg>
