<?xml version="1.0" encoding="UTF-8" standalone="no"?>
<svg xmlns="http://www.w3.org/2000/svg" version="1.1" xml:space="preserve" enable-background="new 0 0 48 48" y="0px" x="0px" width="48px" height="48px" viewBox="0 0 48 48">
<g transform="matrix(0.85314283,0.76541739,-0.60993003,0.70357337,20.0103,-23.565583)">
	<path fill="#333" d="M31.498,17.374c-1.463-6.536-0.359-10.374-0.359-10.374s-3.279,1.797-3.033,5.549c0.478,7.261,4.177,11.802,1.185,16.311-0.001-0.001,4.681-0.431,2.207-11.486z"/>
	<path fill="#b3b3b3" d="m38.542,18.24s-8.642-8.644-8.644-8.645c-0.043-0.044-0.301,0.53-0.317,0.593-0.054,0.196-0.11,0.32-0.126,0.521-0.007,0.092-0.029,0.438,0.039,0.513l8.032,8.033,1.016-1.015z"/>
	<path fill="#333" d="m17.54,41s2.911-2.115,2.632-7.022c-0.278-4.908-3.181-13.991-0.309-16.116l0.943-1.151s-4.306,2.303-4.225,8.25c0.083,5.945,2.594,8.618,0.959,16.039z"/>
	<path fill="#b3b3b3" d="m22.465,17.345,8.604,8.606c0.125-0.318,0.228-0.648,0.264-0.99,0.021-0.209,0.057-0.722-0.113-0.89l-7.739-7.742-1.016,1.016z"/>
	<path fill="#b3b3b3" d="m17.739,23.548,7.363,7.396,1.016-1.016-8.244-8.251c-0.161,0.625-0.179,1.231-0.135,1.871z"/>
	<path fill="#b3b3b3" d="m18.654,19.001,10.458,10.473,1.016-1.016-10.653-10.671-0.06,0.079s-0.644,0.594-0.771,1.033c-0.005,0.019,0.01,0.102,0.01,0.102z"/>
	<path fill="#666" d="m30.745,16.382c6.357,2.114,10.375,0.359,10.375,0.359s-1.799,3.279-5.548,3.031c-1.067-0.07-2.131-0.204-3.174-0.444-0.765-0.176-1.506-0.411-2.242-0.682-0.624-0.229-1.238-0.486-1.869-0.692-0.678-0.221-1.38-0.39-2.086-0.476-1.251-0.152-2.543-0.204-3.794-0.065-0.774,0.086-1.581,0.286-2.294,0.622-0.531,0.249-1.012,0.594-1.467,0.962-0.114,0.093-0.229,0.187-0.342,0.279-0.074,0.061-0.255,0.156-0.297,0.241,0.001,0.001,3.095-6.343,12.738-3.135z"/>
	<path fill="#b3b3b3" d="m10.202,29.099s8.587,8.589,8.604,8.605c0.104-0.066,0.18-0.287,0.219-0.406,0.074-0.224,0.117-0.612,0.121-0.848,0.003-0.144,0.039-0.416-0.076-0.529l-7.852-7.839-1.016,1.017z"/>
	<path fill="#666" d="m6.88,30.581s2.115-2.912,7.022-2.635c4.906,0.279,12.258,2.691,15.72,0.561,0.716-0.44,1.795-1.396,1.795-1.396s-2.382,4.531-8.498,4.428c-5.944-0.101-8.616-2.595-16.039-0.958z"/>
</g><g transform="matrix(0.38580747,0.76586005,-0.71780818,0.07442885,25.895552,14.459649)">
	<path fill="#333" d="M31.498,17.374c-1.463-6.536-0.359-10.374-0.359-10.374s-3.279,1.797-3.033,5.549c0.478,7.261,4.177,11.802,1.185,16.311-0.001-0.001,4.681-0.431,2.207-11.486z"/>
	<path fill="#b3b3b3" d="m38.542,18.24s-8.642-8.644-8.644-8.645c-0.043-0.044-0.301,0.53-0.317,0.593-0.054,0.196-0.11,0.32-0.126,0.521-0.007,0.092-0.029,0.438,0.039,0.513l8.032,8.033,1.016-1.015z"/>
	<path fill="#333" d="m17.54,41s2.911-2.115,2.632-7.022c-0.278-4.908-3.181-13.991-0.309-16.116l0.943-1.151s-4.306,2.303-4.225,8.25c0.083,5.945,2.594,8.618,0.959,16.039z"/>
	<path fill="#b3b3b3" d="m22.465,17.345,8.604,8.606c0.125-0.318,0.228-0.648,0.264-0.99,0.021-0.209,0.057-0.722-0.113-0.89l-7.739-7.742-1.016,1.016z"/>
	<path fill="#b3b3b3" d="m17.739,23.548,7.363,7.396,1.016-1.016-8.244-8.251c-0.161,0.625-0.179,1.231-0.135,1.871z"/>
	<path fill="#b3b3b3" d="m18.654,19.001,10.458,10.473,1.016-1.016-10.653-10.671-0.06,0.079s-0.644,0.594-0.771,1.033c-0.005,0.019,0.01,0.102,0.01,0.102z"/>
	<path fill="#666" d="m30.745,16.382c6.357,2.114,10.375,0.359,10.375,0.359s-1.799,3.279-5.548,3.031c-1.067-0.07-2.131-0.204-3.174-0.444-0.765-0.176-1.506-0.411-2.242-0.682-0.624-0.229-1.238-0.486-1.869-0.692-0.678-0.221-1.38-0.39-2.086-0.476-1.251-0.152-2.543-0.204-3.794-0.065-0.774,0.086-1.581,0.286-2.294,0.622-0.531,0.249-1.012,0.594-1.467,0.962-0.114,0.093-0.229,0.187-0.342,0.279-0.074,0.061-0.255,0.156-0.297,0.241,0.001,0.001,3.095-6.343,12.738-3.135z"/>
	<path fill="#b3b3b3" d="m10.202,29.099s8.587,8.589,8.604,8.605c0.104-0.066,0.18-0.287,0.219-0.406,0.074-0.224,0.117-0.612,0.121-0.848,0.003-0.144,0.039-0.416-0.076-0.529l-7.852-7.839-1.016,1.017z"/>
	<path fill="#666" d="m6.88,30.581s2.115-2.912,7.022-2.635c4.906,0.279,12.258,2.691,15.72,0.561,0.716-0.44,1.795-1.396,1.795-1.396s-2.382,4.531-8.498,4.428c-5.944-0.101-8.616-2.595-16.039-0.958z"/>
</g><g transform="matrix(0.90443566,0.42661006,-0.42661006,0.90443566,18.271744,-19.892411)">
	<path fill="#333" d="m43.684,29.709c-0.851-1.15-1.752-2.261-2.665-3.359-0.378-0.452-0.763-0.898-1.146-1.349-0.265-0.312-0.506-0.661-0.856-0.867-0.076-0.045-0.158-0.086-0.246-0.112-0.457-0.153-0.978-0.133-1.417,0.066-0.06,0.025-0.117,0.056-0.17,0.09-0.173,0.114-0.298,0.271-0.368,0.479-0.109,0.325,0.021,0.71-0.08,1.016-0.031,0.091-0.081,0.157-0.145,0.197-0.287,0.19-0.851-0.057-1.148-0.039-0.275,0.013-0.538,0.104-0.764,0.253-0.16,0.105-0.301,0.241-0.413,0.4-0.152,0.22-0.258,0.521-0.263,0.812-0.004,0.202,0.186,0.592-0.014,0.724-0.018,0.012-0.038,0.019-0.061,0.028-0.207,0.063-0.753-0.344-0.972-0.377-0.323-0.047-0.714-0.083-0.982,0.095-0.007,0.005-0.017,0.011-0.021,0.015-0.531,0.351-0.755,1.078-0.608,1.722,0.104,0.462,0.433,0.77,0.773,1.06,0.004,0.006,0.029,0.041,0.034,0.047-0.005-0.006,0.002,0.009-0.002,0.004-0.617-0.524-1.438-1.155-2.099-1.623-0.729-0.515-3.815-2.895-4.733-2.711-0.166,0.032-0.319,0.103-0.459,0.194-0.164,0.108-0.306,0.252-0.417,0.414-0.203,0.292-0.297,0.645-0.27,0.999,0.095,1.145,1.575,2.018,2.382,2.59,1.86,1.318,2.391,1.711,4.156,3.153,0.595,0.487,2.634,2.269,3.076,2.865-0.837,0.149-2.252,0.089-3.059,0.622-0.146,0.098-0.276,0.216-0.375,0.36-0.278,0.399-0.35,0.91-0.192,1.371,0.076,0.225,0.208,0.457,0.389,0.618,0.993,0.882,2.555,0.597,3.76,0.493,1.064-0.093,2.12-0.199,3.19-0.211,0.726-0.007,1.45,0.009,2.174-0.022,0.453-0.018,1.339,0.048,1.755-0.228,0.018-0.012,0.036-0.025,0.055-0.039,0.258-0.21,0.449-0.712,0.646-0.991,0.269-0.386,0.536-0.771,0.806-1.157,0.68-0.977,1.353-1.958,2.038-2.93,0.34-0.479,1.007-1.043,0.835-1.7-0.18-0.678-0.912-1.235-1.268-1.831-0.244-0.41-0.576-0.765-0.856-1.141z"/>
	<path fill="#FFF" d="m45.819,30.87c-0.17-0.196-0.329-0.382-0.422-0.537-0.193-0.321-0.423-0.607-0.625-0.858-0.098-0.12-0.194-0.241-0.285-0.363-0.907-1.227-1.873-2.408-2.699-3.401-0.282-0.339-0.569-0.673-0.854-1.007l-0.301-0.351-0.142-0.174c-0.237-0.29-0.533-0.654-0.97-0.909-0.126-0.077-0.276-0.147-0.434-0.2-0.703-0.234-1.484-0.196-2.148,0.104-0.106,0.048-0.21,0.104-0.307,0.168-0.363,0.24-0.628,0.584-0.765,0.995-0.063,0.181-0.087,0.357-0.097,0.517-0.121-0.018-0.249-0.029-0.384-0.021-0.447,0.021-0.884,0.166-1.261,0.415-0.268,0.177-0.497,0.4-0.681,0.664-0.185,0.263-0.316,0.571-0.387,0.89-0.493-0.044-0.993,0.09-1.457,0.391-0.409,0.271-0.721,0.622-0.927,1.017-0.014-0.011-0.027-0.02-0.042-0.029-0.091-0.065-0.22-0.16-0.378-0.274-2.916-2.133-4.211-2.79-5.131-2.605-0.288,0.059-0.564,0.173-0.817,0.341-0.268,0.178-0.5,0.405-0.688,0.678-0.332,0.477-0.49,1.064-0.444,1.648,0.123,1.484,1.557,2.468,2.506,3.118,0.104,0.073,0.203,0.142,0.292,0.205,1.848,1.311,2.361,1.692,4.102,3.111,0.373,0.306,0.977,0.829,1.542,1.343-0.509,0.096-1.015,0.253-1.441,0.535-0.26,0.172-0.478,0.382-0.645,0.623-0.46,0.659-0.579,1.507-0.316,2.269,0.102,0.295,0.301,0.714,0.669,1.041,1.206,1.071,2.873,0.902,4.091,0.782,0.144-0.016,0.283-0.028,0.42-0.041l0.478-0.041c0.907-0.082,1.766-0.157,2.637-0.167,0.224-0.002,0.45-0.002,0.676-0.003,0.51,0.001,1.019,0.001,1.528-0.019,0.076-0.004,0.17-0.004,0.272-0.005,0.595-0.001,1.408-0.004,1.991-0.389,0.048-0.032,0.095-0.066,0.137-0.103,0.317-0.256,0.52-0.628,0.68-0.927,0.054-0.097,0.101-0.189,0.151-0.26l0.808-1.162,0.746-1.074c0.43-0.617,0.857-1.235,1.29-1.851,0.06-0.083,0.136-0.172,0.21-0.265,0.391-0.471,1.038-1.257,0.773-2.265-0.166-0.641-0.584-1.127-0.951-1.554zm-0.012,1.809c0.174,0.657-0.493,1.221-0.834,1.701-0.684,0.973-1.357,1.952-2.037,2.928-0.27,0.387-0.536,0.771-0.807,1.158-0.196,0.28-0.387,0.78-0.647,0.992-0.016,0.012-0.033,0.026-0.053,0.037-0.416,0.275-1.302,0.21-1.755,0.228-0.725,0.031-1.448,0.017-2.175,0.023-1.068,0.011-2.126,0.119-3.188,0.211-1.206,0.104-2.768,0.389-3.763-0.493-0.179-0.161-0.309-0.394-0.387-0.618-0.158-0.461-0.085-0.972,0.191-1.372,0.102-0.143,0.229-0.261,0.378-0.36,0.805-0.532,2.221-0.472,3.057-0.622-0.442-0.596-2.481-2.377-3.077-2.864-1.765-1.442-2.298-1.835-4.156-3.153-0.805-0.573-2.286-1.445-2.381-2.589-0.026-0.354,0.066-0.708,0.269-1,0.113-0.161,0.256-0.303,0.418-0.41,0.139-0.092,0.295-0.159,0.461-0.193,0.919-0.184,4.007,2.2,4.737,2.716,0.661,0.467,1.486,1.106,2.104,1.632-0.341-0.29-0.712-0.663-0.816-1.127-0.146-0.644,0.077-1.371,0.608-1.722,0.007-0.006,0.015-0.01,0.021-0.015,0.267-0.178,0.657-0.142,0.981-0.094,0.22,0.032,0.722,0.376,0.929,0.309,0.022-0.005,0.065,0.019,0.082,0.007,0.198-0.13,0.021-0.504,0.025-0.706,0.005-0.291,0.115-0.585,0.269-0.804,0.112-0.159,0.255-0.292,0.415-0.398,0.226-0.148,0.49-0.237,0.765-0.249,0.298-0.018,0.863,0.229,1.15,0.039,0.063-0.04,0.113-0.106,0.144-0.197,0.102-0.304-0.029-0.689,0.082-1.015,0.067-0.208,0.196-0.364,0.367-0.479,0.053-0.033,0.11-0.064,0.17-0.091,0.438-0.199,0.96-0.219,1.418-0.066,0.086,0.028,0.169,0.068,0.245,0.114,0.351,0.206,0.59,0.556,0.855,0.866,0.383,0.45,0.769,0.897,1.146,1.351,0.914,1.1,1.818,2.208,2.666,3.358,0.279,0.376,0.611,0.732,0.855,1.138,0.357,0.592,1.089,1.151,1.268,1.829z"/>
</g></svg>
